<?xml version="1.0" standalone="no"?>
<!DOCTYPE svg PUBLIC "-//W3C//DTD SVG 20010904//EN"
 "http://www.w3.org/TR/2001/REC-SVG-20010904/DTD/svg10.dtd">
<svg version="1.0" xmlns="http://www.w3.org/2000/svg"
 width="512.000000pt" height="512.000000pt" viewBox="0 0 512.000000 512.000000"
 preserveAspectRatio="xMidYMid meet">
<metadata>
Created by potrace 1.14, written by Peter Selinger 2001-2017
</metadata>
<g transform="translate(0.000000,512.000000) scale(0.100000,-0.100000)"
fill="#000000" stroke="none">
<path d="M2010 4957 l0 -93 -251 1 c-160 0 -253 -3 -258 -10 -5 -5 -8 -52 -7
-102 1 -56 -3 -93 -9 -94 -5 -1 -55 -2 -110 -3 l-100 -1 0 -103 0 -102 -30 -1
c-16 -1 -85 -1 -152 -2 -105 0 -123 -2 -124 -16 -1 -9 -2 -52 -3 -96 0 -44 -4
-84 -8 -90 -4 -6 -66 -9 -157 -8 l-151 1 -1 -36 c-1 -21 -1 -70 0 -109 l1 -73
-105 0 -105 0 -1 -32 c0 -18 -1 -112 -2 -208 l-2 -175 -100 -1 -100 -2 -5
-264 -5 -264 -90 1 c-50 0 -95 -1 -102 -3 -9 -3 -12 -124 -12 -523 l0 -519
104 0 105 0 0 -266 0 -265 105 3 105 3 -1 -130 c0 -71 0 -167 0 -212 l1 -81
88 0 c48 0 95 0 104 -1 15 -1 18 -11 17 -73 -1 -40 -1 -87 0 -104 l1 -30 158
0 157 1 1 -96 c0 -52 3 -99 6 -105 4 -6 66 -9 152 -9 92 1 147 -3 149 -10 2
-5 3 -52 2 -102 0 -56 3 -94 10 -96 5 -2 54 -3 108 -2 82 2 97 -1 98 -14 1 -9
2 -56 3 -104 0 -54 5 -90 13 -95 6 -4 122 -7 257 -6 l246 1 0 -89 0 -88 528 2
527 3 2 80 c0 44 2 83 2 86 1 3 116 6 256 6 140 0 258 3 262 7 4 4 8 53 8 109
l0 102 97 0 c53 0 100 3 104 7 4 4 7 51 8 105 l1 98 152 0 152 -1 3 105 3 104
158 1 157 0 0 103 c0 75 3 103 13 104 6 0 53 1 103 1 l92 1 0 205 c1 112 3
206 4 208 2 2 49 4 105 5 l101 1 0 232 c1 127 1 246 1 264 l1 32 109 0 110 0
-9 30 c-5 16 -5 32 0 35 4 3 4 21 0 40 -4 19 -4 37 0 40 4 3 4 21 0 40 -4 19
-4 37 0 40 4 3 4 21 0 40 -4 19 -4 37 0 40 4 3 4 21 0 40 -4 19 -4 37 0 40 4
3 4 21 0 40 -4 19 -4 37 0 40 4 3 4 21 0 40 -4 19 -4 37 0 40 4 3 4 21 0 40
-4 19 -4 37 0 40 4 3 4 21 0 40 -4 19 -4 37 0 40 4 3 4 21 0 40 -4 19 -4 37 0
40 4 3 4 21 0 40 -4 19 -4 37 0 40 4 3 4 20 0 39 -4 19 -5 37 -3 40 3 3 6 26
7 51 1 51 11 46 -110 48 l-71 1 2 53 c1 45 -2 53 -17 53 -13 0 -18 8 -19 28 0
15 0 109 -1 210 l0 182 -62 1 c-33 1 -77 0 -97 -1 -21 -1 -40 4 -44 10 -4 7
-7 102 -7 211 l1 199 -105 0 -104 0 0 108 0 109 -147 0 c-82 1 -154 2 -160 2
-10 1 -13 29 -13 104 l0 104 -150 -1 c-172 -2 -158 -11 -158 104 0 41 -1 82
-1 90 -1 13 -17 16 -96 15 -57 -1 -99 3 -104 9 -5 6 -8 49 -7 96 1 47 1 90 -1
95 -2 7 -92 10 -256 10 -138 -1 -257 0 -263 2 -6 2 -10 37 -8 93 l2 90 -529 0
-529 0 0 -93z"/>
</g>
</svg>
